<svg xmlns="http://www.w3.org/2000/svg" xmlns:xlink="http://www.w3.org/1999/xlink" version="1.1" x="0px" y="0px" viewBox="0 0 512 640" style="enable-background:new 0 0 512 512;" xml:space="preserve"><g><g><path d="M421.987,397.381c-0.674,0-1.636-0.116-3.431-0.416c-0.091-0.015-0.182-0.034-0.271-0.058    c-13.354-3.515-18.912-4.424-27.034-4.424c-3.886,0-8.464,0.225-14.045,0.519c-0.052,0.003-0.104,0.004-0.157,0.004    c-5.5,0-13.562-0.149-23.767-0.34c-15.839-0.294-35.551-0.66-56.233-0.66c-1.186,0-2.26-0.698-2.741-1.781l-4-9    c-0.587-1.321-0.148-2.873,1.043-3.691c0.094-0.065,0.19-0.124,0.29-0.177l-2.323-5.109c-0.312-0.687-0.351-1.457-0.125-2.158    c-0.108-0.203-0.216-0.403-0.322-0.604c-1.276-2.388-2.492-4.662-3.338-7.354c-6.1-3.089-7.899-6.996-9.467-11.777    c-1.848,5.161-3.857,8.199-10.481,11.72c-0.517,1.67-1.155,3.161-1.777,4.613c-0.723,1.687-1.405,3.279-1.848,5.046    c-0.025,0.101-0.056,0.2-0.091,0.298l-2.025,5.57c1.063,0.792,1.486,2.2,1.015,3.457l-2.999,8    c-0.439,1.172-1.559,1.947-2.809,1.947h-25c-1.186,0-2.26-0.698-2.741-1.781l-4-9c-0.515-1.157-0.247-2.513,0.668-3.388    c0.417-0.398,0.927-0.658,1.466-0.77l-3.179-7.947c-1.018-2.544-2.042-5.363-3.034-8.089c-0.821-2.259-1.666-4.581-2.499-6.725    c-10.306-4.345-12.273-10.314-14.836-18.439c-0.132,0.388-0.261,0.767-0.388,1.139c-2.506,7.381-4.191,12.344-14.102,17.201    c-0.845,2.171-1.703,4.531-2.537,6.824c-0.991,2.726-2.016,5.545-3.034,8.089l-3.645,9.111c0.511,0.21,0.961,0.56,1.292,1.021    c0.564,0.782,0.717,1.788,0.413,2.702l-2,6c-0.453,1.357-1.806,2.202-3.218,2.028c-3.458-0.432-6.635-0.634-9.996-0.634    c-5.317,0-11.396,0.514-19.126,1.615c-9.272,1.851-16.92,2.64-25.552,2.64c-0.001,0-0.001,0-0.002,0    c-4.206,0-8.879-0.187-15.151-0.604c-1.174-0.078-2.194-0.836-2.608-1.938c-0.414-1.102-0.146-2.344,0.687-3.176    c5.813-5.813,11.824-11.824,16.68-18.623c4.214-5.619,7.003-9.772,9.464-13.438c6.236-9.288,9.671-14.404,25.16-26.205    c11.605-8.704,15.458-12.481,25.447-23.465c3.866-5.799,7.86-11.801,11.766-18.637c0.024-0.041,0.048-0.082,0.074-0.122    c5.692-8.945,5.794-9.373,7.503-16.524c0.31-1.298,0.669-2.802,1.117-4.593c0.015-0.06,0.032-0.118,0.05-0.176    c3.599-11.396,8.953-16.166,13.676-20.375c3.454-3.078,6.438-5.736,8.385-10.799c0.013-0.035,0.027-0.07,0.042-0.104    c0.967-2.256,1.856-4.701,2.716-7.066c1.809-4.974,3.679-10.117,6.545-14.417c0.073-0.109,0.152-0.213,0.238-0.312    c2.399-2.742,4.525-4.868,6.581-6.923c3.914-3.914,7.294-7.294,11.104-13.645c0.699-1.166,1.172-2.05,1.518-2.696    c0.755-1.411,1.61-3.01,3.674-3.01c1.5,0,2.396,0.959,2.99,1.593c0.142,0.152,0.31,0.332,0.513,0.535    c0.152,0.153,0.289,0.322,0.405,0.504c6.538,10.215,13.454,16.314,20.144,22.212c9.531,8.404,18.534,16.342,25.146,34.373    c0.015,0.039,0.028,0.079,0.041,0.118c3.399,10.623,8.333,15.887,13.557,21.46c6.837,7.294,13.906,14.835,18.487,33.688    c0.536,1.884,1.005,3.842,1.458,5.736c1.222,5.106,2.484,10.387,5.137,14.365c0.069,0.104,0.132,0.211,0.188,0.322    c2.572,5.146,16.883,18.72,21.768,21.713c12.263,6.139,16.625,9.458,25.726,19.563c9.354,9.352,18.235,17.344,29.673,26.704    c0.916,0.684,1.794,1.27,2.502,1.741c1.777,1.185,3.615,2.41,2.909,4.744C425.196,395.505,424.501,397.381,421.987,397.381z     M391.252,386.483c6.861,0,12.063,0.653,19.48,2.354c-9.143-7.685-16.798-14.703-24.804-22.71    c-0.037-0.037-0.073-0.075-0.108-0.114c-8.723-9.691-12.328-12.432-24.112-18.323c-0.068-0.034-0.136-0.071-0.202-0.111    c-5.214-3.128-20.485-17.202-24.051-24.058c-3.176-4.839-4.551-10.587-5.882-16.147c-0.463-1.938-0.9-3.767-1.408-5.543    c-0.011-0.039-0.021-0.078-0.031-0.117c-4.208-17.36-10.735-24.324-17.047-31.059c-5.439-5.803-11.064-11.804-14.875-23.674    c-6.085-16.561-14.137-23.66-23.459-31.879c-6.503-5.733-13.211-11.648-19.736-21.218c-0.123,0.211-0.254,0.434-0.394,0.666    c-4.19,6.983-7.987,10.78-12.006,14.8c-1.948,1.948-3.961,3.96-6.176,6.481c-2.408,3.672-4.053,8.194-5.792,12.979    c-0.882,2.425-1.793,4.932-2.817,7.327c-2.47,6.387-6.284,9.785-9.973,13.072c-4.336,3.863-8.819,7.858-11.919,17.616    c-0.432,1.728-0.779,3.183-1.08,4.442c-1.868,7.816-2.217,8.826-8.239,18.291c-4.04,7.063-8.124,13.188-12.073,19.113    c-0.083,0.125-0.175,0.243-0.276,0.354c-9.861,10.848-14.086,15.132-26.42,24.383c-14.679,11.184-17.726,15.722-23.796,24.763    c-2.378,3.541-5.337,7.948-9.604,13.637c-3.774,5.285-8.143,10.047-12.583,14.591c3.042,0.143,5.641,0.207,8.136,0.207    c0,0,0.001,0,0.002,0c8.242,0,15.556-0.759,24.458-2.539c0.055-0.011,0.109-0.021,0.164-0.028    c8.057-1.151,14.43-1.688,20.057-1.688c1.834,0,3.617,0.056,5.412,0.171c-0.093-0.533-0.042-1.096,0.17-1.628l6-15    c0.982-2.456,1.991-5.229,2.966-7.911c0.991-2.726,2.016-5.545,3.034-8.089c0.285-0.712,0.832-1.288,1.528-1.609    c8.552-3.947,9.571-6.95,12.035-14.205c0.894-2.632,1.906-5.615,3.465-9.253c0.481-1.122,1.623-1.854,2.814-1.817    c1.22,0.022,2.305,0.783,2.744,1.922c1.129,2.937,1.961,5.574,2.695,7.901c2.518,7.983,3.781,11.991,12.582,15.376    c0.779,0.3,1.398,0.91,1.708,1.686c1.018,2.544,2.042,5.363,3.034,8.089c0.975,2.683,1.984,5.455,2.966,7.911l6,15    c0.462,1.156,0.162,2.479-0.754,3.322c-0.334,0.308-0.726,0.528-1.142,0.657l0.06,0.135h20.971l0.237-0.632    c-1.019-0.792-1.425-2.16-0.977-3.394l3.948-10.858c0.557-2.165,1.348-4.012,2.113-5.798c0.723-1.687,1.405-3.279,1.848-5.046    c0.212-0.85,0.785-1.564,1.568-1.956c6.975-3.487,7.539-5.241,9.64-11.769c0.518-1.609,1.104-3.433,1.883-5.573    c0.425-1.169,1.527-1.954,2.771-1.975c0.017,0,0.032,0,0.048,0c1.226,0,2.329,0.745,2.785,1.886c1.04,2.6,1.746,4.845,2.369,6.825    c1.748,5.559,2.546,8.095,8.064,10.548c0.844,0.375,1.468,1.117,1.691,2.014c0.652,2.606,1.834,4.818,3.203,7.379    c0.512,0.957,1.041,1.948,1.57,3.007c0.384,0.768,0.417,1.653,0.109,2.437l3.938,8.664c0.6,1.32,0.169,2.881-1.022,3.707    c-0.113,0.078-0.229,0.147-0.349,0.208l0.59,1.327c20.024,0.021,39.028,0.375,54.395,0.661    c10.126,0.188,18.134,0.337,23.577,0.338C382.605,386.709,387.238,386.483,391.252,386.483z"/></g><g><path d="M441.293,400.075c-5.249,0-11.093-0.698-17.865-2.135c-0.035-0.008-0.07-0.016-0.105-0.024    c-4.197-1.049-9.825-6.226-15.292-11.687c-6.229-5.141-11.228-10.104-16.063-14.906c-8.216-8.159-15.977-15.866-28.314-22.661    c-6.698-3.367-15.012-10.888-19.826-16.637c-2.884-2.95-10.777-13.675-10.777-19.02c0-0.549,0.201-3.289,4.17-3.289    c1.053,0,2.488,0.132,4.009,0.271c1.58,0.144,3.371,0.308,4.651,0.308c0.603,0,0.899-0.037,1.009-0.056    c0.254-0.106,0.521-0.178,0.795-0.211c1.443-0.51,7.243-3.977,29.519-20.873c0.906-0.688,1.608-1.22,2.048-1.55    c0.044-0.033,0.09-0.065,0.136-0.096c1.651-1.101,2.87-2.018,3.85-2.755c1.884-1.417,3.021-2.272,4.618-2.272    c2.706,0,3.723,2.292,4.901,4.945c0.482,1.087,1.08,2.433,1.915,4.109c6.364,10.164,18.203,26.696,24.97,30.925    c0.877,0.548,1.41,1.51,1.41,2.544v1c0,0.382-0.073,0.76-0.215,1.114l-2,5l-2.285,6.288c0.382,0.22,0.716,0.525,0.973,0.899    c0.56,0.814,0.683,1.853,0.327,2.775l-3.22,8.372c0.364,0.227,0.682,0.53,0.925,0.899c0.555,0.842,0.649,1.906,0.253,2.833    l-2.927,6.828c14.077-5.544,28.219-5.504,41.29,0.146c0.194-0.663,0.616-1.258,1.228-1.661c1.188-0.782,2.767-0.624,3.772,0.384    c9.768,9.768,19.868,19.868,28.721,26.753c1.012,0.787,1.412,2.13,0.996,3.342s-1.557,2.026-2.838,2.026    c-11.211,0-17.87,2.159-24.311,4.247C455.677,398.219,449.95,400.075,441.293,400.075z M424.733,392.084    c6.333,1.34,11.75,1.991,16.56,1.991c7.709,0,12.754-1.636,18.597-3.529c5.009-1.625,10.529-3.414,18.269-4.171    c-5.72-4.97-11.72-10.792-17.692-16.724c-0.907,0.486-2.021,0.479-2.938-0.06c-15.215-8.95-32.146-8.897-49.075,0.065    c-1.124,0.595-2.501,0.416-3.436-0.445c-0.936-0.861-1.227-2.219-0.726-3.388l4.018-9.374c-0.282-0.201-0.531-0.452-0.732-0.746    c-0.56-0.814-0.683-1.853-0.327-2.775l3.22-8.372c-0.341-0.212-0.641-0.492-0.877-0.83c-0.562-0.801-0.697-1.826-0.362-2.746l4-11    l1.467-3.669c-10.274-7.951-24.555-30.696-25.191-31.716c-0.051-0.08-0.097-0.163-0.14-0.248    c-0.929-1.859-1.604-3.377-2.095-4.485c-0.07-0.156-0.141-0.316-0.212-0.476c-0.073,0.055-0.146,0.109-0.218,0.163    c-0.972,0.731-2.299,1.729-4.058,2.905c-0.437,0.328-1.104,0.835-1.956,1.48c-23.968,18.181-29.579,21.479-31.995,21.987    c-0.751,0.258-1.676,0.372-2.953,0.372c-1.554,0-3.405-0.169-5.196-0.333c-0.231-0.021-0.461-0.042-0.687-0.063    c1.771,3.741,5.635,9.446,8.174,11.985c0.064,0.063,0.126,0.131,0.184,0.2c5.064,6.078,12.819,12.629,18.037,15.237    c0.035,0.018,0.069,0.036,0.104,0.055c13.105,7.208,21.166,15.214,29.701,23.689c4.766,4.733,9.694,9.628,15.761,14.624    c0.074,0.061,0.146,0.126,0.214,0.194C418.374,388.087,422.6,391.519,424.733,392.084z"/></g><g><path d="M26.05,392.006c-1.177,0-2.246-0.688-2.732-1.761c-0.486-1.071-0.301-2.329,0.474-3.215    c6.532-7.465,32.971-37.023,39.337-42.329c0.287-0.239,0.617-0.423,0.972-0.541c1.298-0.433,2.663-1.115,4.107-1.838    c1.485-0.742,3.017-1.508,4.62-2.069c1.774-0.979,3.872-2.067,6.087-3.217c8.826-4.578,20.897-10.841,24.537-16.535l0.139-0.263    c8.822-16.664,10.177-19.226,25.494-32.499c8.426-7.49,11.37-11.277,17.819-19.575l0.777-1c0.592-0.762,1.502-1.188,2.478-1.156    c0.964,0.035,1.852,0.531,2.387,1.334c1.973,2.959,9.951,27.239,12.954,36.492c12.353,5.732,13.306,6.685,13.671,7.051    c1.15,1.15,1.174,3.008,0.054,4.188c-7.795,8.205-14.504,13.368-20.992,18.361c-9.532,7.336-17.767,13.674-27.637,28.163    c-3.882,6.792-7.048,12.097-12.242,18.33c-0.265,0.317-0.593,0.577-0.963,0.763c-1.118,0.693-6.139,5.909-10.112,10.323    c-0.586,0.65-1.426,1.022-2.301,0.992c-0.42-0.01-42.033-0.999-47.929-0.999c-4.808,0-9.57,0.232-14.613,0.479    C37.186,391.741,31.754,392.006,26.05,392.006z M57.05,385.006c5.424,0,39.289,0.793,46.697,0.969    c3.229-3.556,7.92-8.546,10.278-10.227c4.75-5.751,7.62-10.579,11.42-17.23c0.039-0.068,0.08-0.134,0.124-0.198    c10.439-15.353,19.458-22.293,29.005-29.641c5.535-4.26,11.236-8.647,17.602-14.977c-2.702-1.362-6.76-3.301-10.383-4.973    c-0.76-0.351-1.339-1.004-1.597-1.8c-3.406-10.528-8.229-24.921-10.903-32.068c-5.056,6.454-8.518,10.515-16.249,17.387    c-14.497,12.563-15.41,14.289-24.149,30.797l-0.193,0.364c-0.034,0.063-0.069,0.126-0.107,0.187    c-4.443,7.108-16.903,13.572-26.916,18.767c-2.275,1.181-4.423,2.295-6.171,3.266c-0.162,0.091-0.333,0.165-0.508,0.224    c-1.298,0.433-2.663,1.115-4.107,1.838c-1.391,0.695-2.823,1.411-4.316,1.96c-5.388,4.741-23.823,25.072-33.768,36.242    c3.177-0.1,6.288-0.251,9.337-0.4C47.263,385.242,52.096,385.006,57.05,385.006z"/></g><g><path d="M218.05,309.006c-1.657,0-3-1.343-3-3v-24c0-1.117,0.622-2.143,1.612-2.659c10.329-5.395,21.388-13.649,21.388-17.341    c0-0.124,0.008-0.249,0.023-0.372c1.097-8.776,17.784-22.351,21.117-24.982c1.301-1.026,3.187-0.805,4.214,0.495    c1.026,1.3,0.805,3.187-0.495,4.214c-7.42,5.861-18.099,16.155-18.863,20.887c-0.3,8.327-16.02,17.773-22.996,21.56v22.199    C221.05,307.663,219.707,309.006,218.05,309.006z"/></g><g><path d="M45.049,391.006c-0.677,0-1.358-0.228-1.919-0.695c-1.273-1.061-1.445-2.952-0.384-4.226l10-12    c0.323-0.387,0.738-0.687,1.208-0.871l27.55-10.823c2.687-2.235,18.319-15.214,25.748-20.785    c5.971-4.478,12.12-18.581,13.985-23.638c0.574-1.554,2.298-2.348,3.853-1.776c1.554,0.573,2.35,2.297,1.777,3.852    c-0.298,0.81-7.405,19.905-16.015,26.363c-7.848,5.886-25.7,20.755-25.879,20.904c-0.247,0.205-0.524,0.37-0.823,0.487    l-27.285,10.719l-9.508,11.41C46.762,390.639,45.908,391.006,45.049,391.006z"/></g><g><path d="M166.051,420.006c-0.732,0-1.457-0.268-2.022-0.784c-0.943-0.86-1.238-2.224-0.735-3.397l5.967-13.924    c-0.287-0.078-0.566-0.2-0.827-0.367c-1.187-0.76-1.686-2.242-1.198-3.564l4.836-13.127c-0.233-0.08-0.459-0.19-0.672-0.331    c-1.189-0.784-1.663-2.297-1.134-3.619l6-15c0.982-2.456,1.991-5.229,2.966-7.911c0.991-2.726,2.016-5.545,3.034-8.089    c0.285-0.712,0.832-1.288,1.528-1.609c8.552-3.947,9.571-6.95,12.035-14.205c0.894-2.632,1.906-5.615,3.465-9.253    c0.481-1.122,1.623-1.854,2.814-1.817c1.22,0.022,2.305,0.783,2.743,1.922c1.129,2.937,1.961,5.574,2.695,7.901    c2.518,7.983,3.781,11.991,12.582,15.376c0.779,0.3,1.398,0.91,1.708,1.686c1.018,2.544,2.042,5.363,3.034,8.089    c0.975,2.683,1.984,5.455,2.966,7.911l6,15c0.462,1.156,0.162,2.479-0.754,3.322c-0.409,0.376-0.904,0.623-1.425,0.73l5.056,12.64    c0.228,0.424,0.357,0.907,0.357,1.422c0,1.5-1.1,2.742-2.538,2.965l5.321,13.967c0.463,1.215,0.091,2.589-0.92,3.404    c-1.011,0.814-2.433,0.888-3.521,0.177c-10.201-6.652-21.042-10.026-32.219-10.026c-11.262,0-23.278,3.416-35.713,10.151    C167.03,419.887,166.539,420.006,166.051,420.006z M175.448,393.032c0.609,0.082,1.192,0.35,1.66,0.791    c0.916,0.863,1.195,2.207,0.699,3.364l-5.797,13.526c10.732-4.796,21.191-7.222,31.182-7.222c9.664,0,19.072,2.263,28.066,6.737    l-5.012-13.155c-0.44-1.156-0.126-2.463,0.79-3.293c0.406-0.367,0.894-0.607,1.407-0.714l-5.179-12.947    c-0.462-1.156-0.162-2.479,0.754-3.322c0.409-0.376,0.904-0.623,1.425-0.73l-3.179-7.947c-1.018-2.544-2.042-5.363-3.034-8.089    c-0.821-2.259-1.666-4.581-2.499-6.725c-10.306-4.345-12.273-10.314-14.836-18.439c-0.132,0.388-0.261,0.767-0.388,1.139    c-2.506,7.381-4.191,12.345-14.102,17.201c-0.845,2.171-1.703,4.531-2.537,6.824c-0.991,2.726-2.016,5.545-3.034,8.089    l-3.645,9.111c0.525,0.216,0.986,0.579,1.32,1.059c0.561,0.805,0.693,1.833,0.354,2.753L175.448,393.032z"/></g><g><path d="M202.05,428.006c-1.657,0-3-1.343-3-3v-18c0-1.657,1.343-3,3-3s3,1.343,3,3v18    C205.05,426.663,203.707,428.006,202.05,428.006z"/></g><g><path d="M250.051,410.006c-0.737,0-1.466-0.271-2.034-0.794c-0.935-0.861-1.226-2.219-0.725-3.388l3.841-8.962    c-0.643-0.206-1.207-0.626-1.588-1.205c-0.555-0.842-0.65-1.906-0.253-2.833l3.7-8.635c-0.859-0.809-1.177-2.066-0.762-3.209    l3.948-10.858c0.557-2.165,1.348-4.012,2.113-5.798c0.723-1.687,1.405-3.279,1.848-5.046c0.212-0.85,0.785-1.564,1.568-1.956    c6.975-3.487,7.539-5.241,9.64-11.769c0.518-1.609,1.104-3.433,1.883-5.573c0.425-1.169,1.527-1.954,2.771-1.975    c0.017,0,0.032,0,0.048,0c1.226,0,2.329,0.745,2.785,1.886c1.04,2.6,1.746,4.845,2.369,6.825    c1.748,5.559,2.546,8.095,8.064,10.548c0.844,0.375,1.468,1.118,1.691,2.014c0.652,2.606,1.834,4.818,3.203,7.379    c0.512,0.957,1.041,1.948,1.57,3.007c0.384,0.768,0.417,1.653,0.109,2.437l3.938,8.664c0.6,1.32,0.17,2.881-1.022,3.707    c-0.137,0.095-0.279,0.177-0.426,0.246l3.345,7.805c0.25,0.438,0.392,0.943,0.392,1.483c0,1.26-0.775,2.338-1.876,2.782    l3.642,9.104c0.477,1.191,0.143,2.554-0.83,3.39c-0.972,0.837-2.368,0.962-3.477,0.311c-7.575-4.456-15.418-6.716-23.309-6.716    c-7.935,0-16.267,2.281-24.766,6.781C251.011,409.892,250.53,410.006,250.051,410.006z M256.967,390.149    c0.643,0.206,1.206,0.626,1.588,1.205c0.556,0.842,0.65,1.906,0.253,2.833l-2.919,6.812c13.637-5.412,26.784-5.475,39.444-0.206    l-3.068-7.673c-0.463-1.156-0.163-2.479,0.754-3.322c0.227-0.208,0.479-0.377,0.748-0.504l-3.475-8.106    c-0.566-1.321-0.115-2.859,1.076-3.666c0.089-0.06,0.18-0.115,0.273-0.165l-2.323-5.109c-0.313-0.687-0.351-1.457-0.125-2.158    c-0.108-0.203-0.216-0.403-0.322-0.604c-1.276-2.388-2.492-4.662-3.338-7.354c-6.1-3.089-7.899-6.996-9.467-11.777    c-1.848,5.161-3.857,8.199-10.481,11.72c-0.517,1.67-1.155,3.161-1.777,4.613c-0.723,1.687-1.405,3.279-1.848,5.046    c-0.024,0.101-0.056,0.2-0.091,0.298l-2.025,5.57c1.106,0.824,1.512,2.307,0.964,3.586L256.967,390.149z"/></g><g><path d="M276.05,416.006c-1.657,0-3-1.343-3-3v-13c0-1.657,1.343-3,3-3s3,1.343,3,3v13    C279.05,414.663,277.707,416.006,276.05,416.006z"/></g><g><path d="M407.051,370.006c-0.737,0-1.467-0.271-2.033-0.794c-0.936-0.861-1.227-2.219-0.726-3.388l4.018-9.374    c-0.282-0.201-0.531-0.452-0.732-0.746c-0.56-0.814-0.683-1.853-0.327-2.775l3.22-8.372c-0.341-0.212-0.641-0.492-0.877-0.83    c-0.562-0.801-0.697-1.826-0.362-2.746l4-11c0.082-0.225,0.19-0.439,0.323-0.639c0.988-1.483,1.762-3.436,2.579-5.503    c0.659-1.666,1.341-3.389,2.233-5.175c0.329-0.657,0.888-1.171,1.569-1.443c6.046-2.419,6.504-4.131,8.022-9.804    c0.536-2.005,1.204-4.499,2.272-7.437c0.425-1.169,1.527-1.954,2.771-1.975c0.017,0,0.032,0,0.048,0    c1.226,0,2.329,0.745,2.785,1.886c1.04,2.6,1.746,4.845,2.369,6.825c1.748,5.559,2.546,8.095,8.064,10.548    c0.636,0.282,1.153,0.777,1.465,1.399c0.893,1.786,1.574,3.509,2.233,5.175c0.817,2.067,1.591,4.02,2.579,5.503    c0.133,0.199,0.241,0.414,0.323,0.639l4,11c0.335,0.92,0.199,1.945-0.362,2.746c-0.192,0.275-0.427,0.512-0.691,0.704l2.947,8.251    c0.196,0.399,0.307,0.849,0.307,1.324c0,0.922-0.415,1.747-1.069,2.297l3.835,9.589c0.477,1.191,0.143,2.554-0.83,3.39    c-0.972,0.837-2.368,0.961-3.477,0.311c-15.215-8.95-32.146-8.897-49.075,0.065C408.011,369.892,407.529,370.006,407.051,370.006z     M414.63,350.455c0.364,0.227,0.682,0.53,0.925,0.899c0.555,0.842,0.649,1.906,0.253,2.833l-2.927,6.828    c13.779-5.428,27.622-5.506,40.46-0.204l-3.076-7.691c-0.512-1.279-0.085-2.735,1.02-3.539l-3.06-8.566    c-0.446-1.249-0.018-2.632,1.031-3.413l-1.908-5.248c-1.228-1.93-2.07-4.06-2.96-6.308c-0.491-1.242-0.996-2.518-1.578-3.776    c-6.099-2.999-8.018-6.783-9.573-11.402c-1.389,4.909-3.007,8.413-9.975,11.465c-0.57,1.238-1.066,2.492-1.55,3.714    c-0.89,2.248-1.732,4.378-2.96,6.308l-2.202,6.055c0.382,0.221,0.716,0.525,0.973,0.899c0.56,0.814,0.683,1.853,0.327,2.775    L414.63,350.455z"/></g><g><path d="M433.05,377.006c-1.657,0-3-1.343-3-3v-14c0-1.657,1.343-3,3-3s3,1.343,3,3v14    C436.05,375.663,434.707,377.006,433.05,377.006z"/></g><g><path d="M261.05,116.006c-1.657,0-3-1.343-3-3v-26c0-1.657,1.343-3,3-3s3,1.343,3,3v26    C264.05,114.663,262.707,116.006,261.05,116.006z"/></g><g><path d="M342.053,160.006c-1.065,0-2.098-0.569-2.641-1.572c-0.789-1.457-0.248-3.277,1.209-4.066l24-13    c1.457-0.789,3.277-0.248,4.066,1.209s0.248,3.277-1.209,4.066l-24,13C343.024,159.89,342.535,160.006,342.053,160.006z"/></g><g><path d="M366.047,260.007c-0.482,0-0.972-0.117-1.426-0.363l-24-13c-1.457-0.789-1.998-2.61-1.209-4.066    c0.788-1.458,2.609-2,4.066-1.209l24,13c1.457,0.789,1.998,2.61,1.209,4.066C368.145,259.438,367.112,260.007,366.047,260.007z"/></g><g><path d="M156.053,260.007c-1.065,0-2.097-0.569-2.64-1.572c-0.79-1.457-0.248-3.277,1.209-4.066l24-13    c1.456-0.79,3.277-0.248,4.066,1.209c0.79,1.457,0.248,3.277-1.209,4.066l-24,13C157.025,259.89,156.536,260.007,156.053,260.007z    "/></g><g><path d="M180.048,160.006c-0.483,0-0.972-0.117-1.426-0.363l-24-13c-1.457-0.789-1.999-2.61-1.209-4.066    c0.789-1.458,2.61-1.999,4.066-1.209l24,13c1.457,0.789,1.999,2.61,1.209,4.066C182.145,159.438,181.113,160.006,180.048,160.006z    "/></g><g><path d="M305.047,131.006c-0.556,0-1.117-0.154-1.619-0.477c-1.394-0.896-1.798-2.752-0.901-4.146l9-14    c0.896-1.395,2.752-1.797,4.146-0.901s1.798,2.752,0.901,4.146l-9,14C307,130.52,306.033,131.006,305.047,131.006z"/></g><g><path d="M367.05,203.006h-17c-1.657,0-3-1.343-3-3s1.343-3,3-3h17c1.657,0,3,1.343,3,3S368.707,203.006,367.05,203.006z"/></g><g><path d="M172.05,203.006h-17c-1.657,0-3-1.343-3-3s1.343-3,3-3h17c1.657,0,3,1.343,3,3S173.707,203.006,172.05,203.006z"/></g><g><path d="M217.053,131.006c-0.987,0-1.953-0.486-2.526-1.378l-9-14c-0.896-1.394-0.493-3.25,0.901-4.146    c1.394-0.898,3.249-0.493,4.146,0.901l9,14c0.896,1.394,0.493,3.25-0.901,4.146C218.17,130.852,217.608,131.006,217.053,131.006z"/></g><g><path d="M261.05,154.006c-1.657,0-3-1.343-3-3v-15c0-1.657,1.343-3,3-3s3,1.343,3,3v15    C264.05,152.663,262.707,154.006,261.05,154.006z"/></g><g><path d="M304.053,179.006c-0.97,0-1.921-0.469-2.499-1.336c-0.919-1.378-0.547-3.241,0.832-4.16l12-8    c1.38-0.92,3.241-0.546,4.16,0.832s0.547,3.241-0.832,4.16l-12,8C305.202,178.843,304.624,179.006,304.053,179.006z"/></g><g><path d="M218.047,179.006c-0.536,0-1.079-0.144-1.569-0.445l-13-8c-1.411-0.869-1.851-2.716-0.983-4.127    c0.869-1.412,2.715-1.852,4.127-0.983l13,8c1.411,0.869,1.851,2.716,0.983,4.127C220.039,178.499,219.055,179.006,218.047,179.006    z"/></g><g><path d="M284.047,163.006c-0.543,0-1.093-0.147-1.587-0.457c-1.405-0.878-1.832-2.729-0.954-4.134l5-8    c0.878-1.405,2.729-1.832,4.134-0.954c1.405,0.878,1.832,2.729,0.954,4.134l-5,8C286.024,162.506,285.047,163.006,284.047,163.006    z"/></g><g><path d="M317.05,203.006h-9c-1.657,0-3-1.343-3-3s1.343-3,3-3h9c1.657,0,3,1.343,3,3S318.707,203.006,317.05,203.006z"/></g><g><path d="M214.05,203.006h-9c-1.657,0-3-1.343-3-3s1.343-3,3-3h9c1.657,0,3,1.343,3,3S215.707,203.006,214.05,203.006z"/></g><g><path d="M237.053,163.006c-1.101,0-2.16-0.607-2.686-1.659l-4-8c-0.741-1.482-0.141-3.284,1.341-4.025    c1.484-0.741,3.285-0.14,4.025,1.341l4,8c0.741,1.482,0.141,3.284-1.341,4.025C237.961,162.904,237.503,163.006,237.053,163.006z"/></g></g><text x="0" y="527" fill="#000000" font-size="5px" font-weight="bold" font-family="'Helvetica Neue', Helvetica, Arial-Unicode, Arial, Sans-serif">Created by Flatart</text><text x="0" y="532" fill="#000000" font-size="5px" font-weight="bold" font-family="'Helvetica Neue', Helvetica, Arial-Unicode, Arial, Sans-serif">from the Noun Project</text></svg>